<svg xmlns="http://www.w3.org/2000/svg" xmlns:xlink="http://www.w3.org/1999/xlink" preserveAspectRatio="xMidYMid" width="26" height="40" viewBox="0 0 26 40">
  <defs>
    <style>
      .cls-1 {
        fill: #f6466c;
        fill-rule: evenodd;
      }
    </style>
  </defs>
  <path d="M14.702,39.875 C14.113,39.956 13.524,39.995 12.939,39.995 C10.078,39.995 7.317,39.040 5.020,37.230 C2.280,35.072 0.537,31.950 0.111,28.443 C-0.519,23.260 1.313,19.003 5.556,15.789 C5.970,15.477 6.314,15.456 6.528,15.495 C6.787,15.541 7.008,15.693 7.166,15.935 C7.366,16.244 7.574,16.855 6.718,17.495 C3.620,19.814 2.034,22.912 2.004,26.706 C1.960,32.357 6.110,37.138 11.658,37.827 C14.657,38.201 17.596,37.332 19.936,35.384 C22.247,33.462 23.653,30.743 23.896,27.727 C24.230,23.590 22.688,20.165 19.311,17.546 C19.282,17.523 19.251,17.502 19.221,17.482 C19.171,17.447 19.121,17.412 19.073,17.374 C18.608,16.997 18.493,16.390 18.800,15.929 C18.964,15.682 19.199,15.523 19.464,15.479 C19.729,15.436 20.007,15.513 20.247,15.700 L20.513,15.907 C21.118,16.375 21.743,16.860 22.285,17.429 C24.692,19.962 25.942,23.112 25.999,26.793 L25.999,26.801 C25.957,33.381 21.101,39.002 14.702,39.875 ZM17.444,29.672 C16.242,30.929 15.036,32.182 13.827,33.432 C13.644,33.620 13.358,33.871 12.981,33.871 L12.981,33.871 C12.603,33.871 12.314,33.618 12.129,33.428 C10.919,32.178 9.714,30.925 8.511,29.669 C8.042,29.180 8.006,28.540 8.423,28.110 C8.607,27.921 8.849,27.816 9.104,27.815 C9.104,27.815 9.105,27.815 9.106,27.815 C9.401,27.815 9.701,27.955 9.950,28.209 C10.437,28.706 10.921,29.207 11.404,29.708 L11.961,30.285 L11.960,29.612 C11.959,26.784 11.957,23.956 11.957,21.128 L11.956,21.056 C11.955,20.904 11.953,20.731 11.998,20.555 C12.127,20.040 12.519,19.746 13.042,19.777 C13.549,19.802 13.895,20.124 13.968,20.635 C13.990,20.796 13.989,20.947 13.989,21.094 L13.988,21.172 L13.996,30.316 C14.079,30.222 14.163,30.129 14.249,30.038 C14.830,29.422 15.418,28.811 16.011,28.206 C16.256,27.955 16.555,27.818 16.853,27.818 C16.854,27.818 16.856,27.818 16.857,27.818 C17.115,27.819 17.357,27.925 17.541,28.115 C17.960,28.549 17.921,29.175 17.444,29.672 ZM13.993,12.503 C13.992,12.517 13.991,12.531 13.990,12.544 C13.932,13.148 13.557,13.509 12.985,13.510 C12.983,13.510 12.982,13.510 12.980,13.510 C12.419,13.510 12.041,13.152 11.971,12.553 C11.944,12.322 11.953,12.098 11.963,11.882 L11.965,11.820 C11.992,11.166 12.400,10.727 12.979,10.727 C12.980,10.727 12.980,10.727 12.981,10.727 C13.558,10.728 13.966,11.167 13.995,11.819 C13.998,11.891 13.997,11.964 13.996,12.036 L13.995,12.247 C13.997,12.317 13.998,12.388 13.995,12.457 L13.993,12.503 ZM13.994,16.929 C13.991,16.969 13.987,17.009 13.979,17.051 C13.875,17.607 13.501,17.940 12.977,17.940 C12.977,17.940 12.976,17.940 12.975,17.940 C12.446,17.939 12.064,17.591 11.978,17.033 C11.939,16.778 11.951,16.530 11.962,16.291 L11.964,16.238 C11.995,15.571 12.384,15.158 12.981,15.158 C12.983,15.158 12.984,15.158 12.986,15.158 C13.582,15.159 13.968,15.577 13.995,16.246 C13.997,16.318 13.997,16.391 13.996,16.463 L13.995,16.716 C13.998,16.777 13.999,16.842 13.995,16.911 L13.994,16.929 ZM15.952,7.416 C15.150,8.225 14.094,8.669 12.976,8.669 C12.965,8.669 12.955,8.669 12.945,8.669 C10.623,8.652 8.735,6.706 8.734,4.331 C8.734,3.170 9.175,2.081 9.975,1.266 C10.774,0.452 11.840,0.004 12.977,0.004 C12.981,0.004 12.984,0.004 12.988,0.004 C14.132,0.007 15.201,0.460 15.997,1.280 C16.792,2.097 17.226,3.187 17.220,4.350 C17.214,5.508 16.764,6.597 15.952,7.416 ZM12.985,2.064 C12.979,2.064 12.973,2.063 12.967,2.063 C11.788,2.063 10.784,3.077 10.771,4.286 C10.757,5.541 11.735,6.575 12.951,6.591 C13.530,6.601 14.094,6.369 14.519,5.943 C14.946,5.515 15.183,4.948 15.186,4.346 C15.193,3.098 14.206,2.074 12.985,2.064 Z" class="cls-1"/>
</svg>
