<svg xmlns="http://www.w3.org/2000/svg" xmlns:xlink="http://www.w3.org/1999/xlink" preserveAspectRatio="xMidYMid" width="70" height="70" viewBox="0 0 70 70">
  <defs>
    <style>
      .cls-1 {
        fill: #fff;
        fill-rule: evenodd;
      }
    </style>
  </defs>
  <path d="M8.742,10.930 L8.742,2.180 C8.742,0.971 9.720,-0.007 10.930,-0.007 C12.139,-0.007 13.117,0.971 13.117,2.180 L13.117,10.930 C13.117,12.139 12.139,13.117 10.930,13.117 C9.720,13.117 8.742,12.139 8.742,10.930 ZM45.928,13.117 C47.137,13.117 48.115,12.139 48.115,10.930 L48.115,2.180 C48.115,0.971 47.137,-0.007 45.928,-0.007 C44.719,-0.007 43.740,0.971 43.740,2.180 L43.740,10.930 C43.740,12.139 44.719,13.117 45.928,13.117 ZM69.989,52.490 C69.989,62.154 62.154,69.988 52.490,69.988 C42.826,69.988 34.991,62.154 34.991,52.490 C34.991,42.826 42.826,34.991 52.490,34.991 C62.154,34.991 69.989,42.826 69.989,52.490 ZM65.614,52.490 C65.614,45.252 59.727,39.364 52.490,39.364 C45.253,39.364 39.365,45.252 39.365,52.490 C39.365,59.727 45.253,65.614 52.490,65.614 C59.727,65.614 65.614,59.727 65.614,52.490 ZM17.492,26.240 L8.742,26.240 L8.742,34.991 L17.492,34.991 L17.492,26.240 ZM8.742,48.115 L17.492,48.115 L17.492,39.364 L8.742,39.364 L8.742,48.115 ZM21.866,34.991 L30.616,34.991 L30.616,26.240 L21.866,26.240 L21.866,34.991 ZM21.866,48.115 L30.616,48.115 L30.616,39.364 L21.866,39.364 L21.866,48.115 ZM4.367,52.054 L4.367,21.867 L52.490,21.867 L52.490,30.616 L56.865,30.616 L56.865,13.552 C56.865,10.895 54.746,8.741 52.127,8.741 L50.302,8.741 L50.302,10.930 C50.302,13.340 48.342,15.304 45.928,15.304 C43.514,15.304 41.553,13.340 41.553,10.930 L41.553,8.741 L15.304,8.741 L15.304,10.930 C15.304,13.340 13.343,15.304 10.930,15.304 C8.516,15.304 6.555,13.340 6.555,10.930 L6.555,8.741 L4.733,8.741 C2.114,8.741 -0.007,10.895 -0.007,13.552 L-0.007,52.054 C-0.007,54.704 2.114,56.865 4.733,56.865 L30.616,56.865 L30.616,52.490 L4.733,52.490 C4.534,52.490 4.367,52.284 4.367,52.054 ZM43.740,34.991 L43.740,26.240 L34.991,26.240 L34.991,34.991 L43.740,34.991 ZM59.052,52.490 L52.490,52.490 L52.490,45.927 C52.490,44.718 51.512,43.740 50.302,43.740 C49.093,43.740 48.115,44.718 48.115,45.927 L48.115,54.677 C48.115,55.886 49.093,56.865 50.302,56.865 L59.052,56.865 C60.261,56.865 61.239,55.886 61.239,54.677 C61.239,53.468 60.261,52.490 59.052,52.490 Z" class="cls-1"/>
</svg>
