<svg xmlns="http://www.w3.org/2000/svg" xmlns:xlink="http://www.w3.org/1999/xlink" preserveAspectRatio="xMidYMid" width="176" height="27" viewBox="0 0 176 27">
  <defs>
    <style>
      .cls-1 {
        fill: #fc597c;
      }

      .cls-1, .cls-2, .cls-3 {
        fill-rule: evenodd;
      }

      .cls-2 {
        fill: #fd5c7f;
      }

      .cls-3 {
        fill: #fd5b7e;
      }
    </style>
  </defs>
  <g>
    <path d="M172.714,14.999 L172.714,11.999 L176.000,11.999 L176.000,14.999 L172.714,14.999 ZM166.143,11.999 L169.428,11.999 L169.428,14.999 L166.143,14.999 L166.143,11.999 ZM159.571,11.999 L162.857,11.999 L162.857,14.999 L159.571,14.999 L159.571,11.999 ZM153.000,11.999 L156.286,11.999 L156.286,14.999 L153.000,14.999 L153.000,11.999 ZM146.428,11.999 L149.714,11.999 L149.714,14.999 L146.428,14.999 L146.428,11.999 ZM139.857,11.999 L143.143,11.999 L143.143,14.999 L139.857,14.999 L139.857,11.999 ZM133.286,11.999 L136.571,11.999 L136.571,14.999 L133.286,14.999 L133.286,11.999 ZM126.714,11.999 L130.000,11.999 L130.000,14.999 L126.714,14.999 L126.714,11.999 ZM120.143,11.999 L123.429,11.999 L123.429,14.999 L120.143,14.999 L120.143,11.999 ZM113.571,11.999 L116.857,11.999 L116.857,14.999 L113.571,14.999 L113.571,11.999 ZM107.000,11.999 L110.286,11.999 L110.286,14.999 L107.000,14.999 L107.000,11.999 Z" class="cls-1"/>
    <path d="M100.418,25.417 C100.418,26.291 99.657,26.999 98.783,26.999 C97.909,26.999 97.201,26.291 97.201,25.417 L97.201,19.088 C97.201,18.215 97.909,17.507 98.783,17.507 C99.657,17.507 100.418,18.215 100.418,19.088 C101.292,19.088 102.000,19.797 102.000,20.670 L102.000,23.835 C102.000,24.709 101.292,25.417 100.418,25.417 ZM90.820,20.670 L95.619,20.670 L95.619,23.834 L90.820,23.834 L90.820,20.670 ZM90.820,19.088 C90.820,17.344 89.401,15.924 87.656,15.924 C86.374,15.924 85.274,16.693 84.777,17.791 C83.679,18.289 82.910,19.389 82.910,20.670 L82.910,22.252 L79.527,22.252 C78.946,22.252 78.400,22.056 77.989,21.697 C76.089,20.042 75.000,17.650 75.000,15.134 C75.000,12.295 76.400,9.580 78.699,7.960 C78.347,7.223 78.164,6.416 78.164,5.588 C78.164,2.552 80.629,-0.000 83.701,-0.001 C86.971,-0.002 89.277,2.651 89.237,5.656 C89.226,6.433 89.055,7.219 88.704,7.960 C91.003,9.580 92.402,12.295 92.402,15.134 C92.402,16.529 92.071,17.872 91.448,19.088 L90.820,19.088 ZM83.701,3.214 C82.393,3.214 81.328,4.279 81.328,5.588 C81.328,6.897 82.393,7.961 83.701,7.961 C85.010,7.961 86.074,6.897 86.074,5.588 C86.074,4.279 85.010,3.214 83.701,3.214 ZM83.701,6.378 C83.265,6.378 82.910,6.024 82.910,5.588 C82.910,5.151 83.265,4.797 83.701,4.797 C84.138,4.797 84.492,5.151 84.492,5.588 C84.492,6.024 84.138,6.378 83.701,6.378 ZM86.074,19.088 C86.074,18.215 86.782,17.507 87.656,17.507 C88.530,17.507 89.238,18.215 89.238,19.088 L89.238,25.417 C89.238,26.291 88.530,26.999 87.656,26.999 C86.782,26.999 86.074,26.291 86.074,25.417 C85.200,25.417 84.492,24.709 84.492,23.835 L84.492,20.670 C84.492,19.797 85.200,19.088 86.074,19.088 Z" class="cls-2"/>
    <path d="M65.714,14.999 L65.714,11.999 L69.000,11.999 L69.000,14.999 L65.714,14.999 ZM59.143,11.999 L62.429,11.999 L62.429,14.999 L59.143,14.999 L59.143,11.999 ZM52.571,11.999 L55.857,11.999 L55.857,14.999 L52.571,14.999 L52.571,11.999 ZM46.000,11.999 L49.286,11.999 L49.286,14.999 L46.000,14.999 L46.000,11.999 ZM39.429,11.999 L42.714,11.999 L42.714,14.999 L39.429,14.999 L39.429,11.999 ZM32.857,11.999 L36.143,11.999 L36.143,14.999 L32.857,14.999 L32.857,11.999 ZM26.286,11.999 L29.571,11.999 L29.571,14.999 L26.286,14.999 L26.286,11.999 ZM19.714,11.999 L23.000,11.999 L23.000,14.999 L19.714,14.999 L19.714,11.999 ZM13.143,11.999 L16.429,11.999 L16.429,14.999 L13.143,14.999 L13.143,11.999 ZM6.571,11.999 L9.857,11.999 L9.857,14.999 L6.571,14.999 L6.571,11.999 ZM-0.000,11.999 L3.286,11.999 L3.286,14.999 L-0.000,14.999 L-0.000,11.999 Z" class="cls-3"/>
  </g>
</svg>
