<svg xmlns="http://www.w3.org/2000/svg" xmlns:xlink="http://www.w3.org/1999/xlink" preserveAspectRatio="xMidYMid" width="175" height="27" viewBox="0 0 175 27">
  <defs>
    <style>
      .cls-1 {
        fill: #fff;
        fill-rule: evenodd;
      }
    </style>
  </defs>
  <g>
    <path d="M171.714,14.999 L171.714,11.999 L175.000,11.999 L175.000,14.999 L171.714,14.999 ZM165.143,11.999 L168.428,11.999 L168.428,14.999 L165.143,14.999 L165.143,11.999 ZM158.571,11.999 L161.857,11.999 L161.857,14.999 L158.571,14.999 L158.571,11.999 ZM152.000,11.999 L155.286,11.999 L155.286,14.999 L152.000,14.999 L152.000,11.999 ZM145.428,11.999 L148.714,11.999 L148.714,14.999 L145.428,14.999 L145.428,11.999 ZM138.857,11.999 L142.143,11.999 L142.143,14.999 L138.857,14.999 L138.857,11.999 ZM132.286,11.999 L135.571,11.999 L135.571,14.999 L132.286,14.999 L132.286,11.999 ZM125.714,11.999 L129.000,11.999 L129.000,14.999 L125.714,14.999 L125.714,11.999 ZM119.143,11.999 L122.429,11.999 L122.429,14.999 L119.143,14.999 L119.143,11.999 ZM112.571,11.999 L115.857,11.999 L115.857,14.999 L112.571,14.999 L112.571,11.999 ZM106.000,11.999 L109.286,11.999 L109.286,14.999 L106.000,14.999 L106.000,11.999 Z" class="cls-1"/>
    <path d="M99.418,25.417 C99.418,26.291 98.657,26.999 97.783,26.999 C96.909,26.999 96.201,26.291 96.201,25.417 L96.201,19.088 C96.201,18.215 96.909,17.506 97.783,17.506 C98.657,17.506 99.418,18.215 99.418,19.088 C100.292,19.088 101.000,19.797 101.000,20.671 L101.000,23.835 C101.000,24.709 100.292,25.417 99.418,25.417 ZM89.820,20.670 L94.619,20.670 L94.619,23.835 L89.820,23.835 L89.820,20.670 ZM89.820,19.088 C89.820,17.344 88.401,15.924 86.656,15.924 C85.374,15.924 84.274,16.693 83.777,17.791 C82.679,18.289 81.910,19.389 81.910,20.671 L81.910,22.253 L78.527,22.253 C77.946,22.253 77.400,22.056 76.989,21.697 C75.089,20.042 74.000,17.650 74.000,15.134 C74.000,12.295 75.400,9.581 77.699,7.960 C77.347,7.223 77.164,6.415 77.164,5.588 C77.164,2.552 79.629,-0.001 82.701,-0.001 C85.971,-0.002 88.277,2.651 88.237,5.656 C88.226,6.433 88.055,7.219 87.704,7.960 C90.003,9.580 91.402,12.295 91.402,15.134 C91.402,16.529 91.071,17.872 90.448,19.088 L89.820,19.088 ZM82.701,3.214 C81.393,3.214 80.328,4.279 80.328,5.588 C80.328,6.896 81.393,7.961 82.701,7.961 C84.010,7.961 85.074,6.896 85.074,5.588 C85.074,4.279 84.010,3.214 82.701,3.214 ZM82.701,6.379 C82.265,6.379 81.910,6.024 81.910,5.588 C81.910,5.151 82.265,4.797 82.701,4.797 C83.138,4.797 83.492,5.151 83.492,5.588 C83.492,6.024 83.138,6.379 82.701,6.379 ZM85.074,19.088 C85.074,18.215 85.782,17.506 86.656,17.506 C87.530,17.506 88.238,18.215 88.238,19.088 L88.238,25.417 C88.238,26.291 87.530,26.999 86.656,26.999 C85.782,26.999 85.074,26.291 85.074,25.417 C84.200,25.417 83.492,24.709 83.492,23.835 L83.492,20.671 C83.492,19.797 84.200,19.088 85.074,19.088 Z" class="cls-1"/>
    <path d="M65.714,14.999 L65.714,11.999 L69.000,11.999 L69.000,14.999 L65.714,14.999 ZM59.143,11.999 L62.429,11.999 L62.429,14.999 L59.143,14.999 L59.143,11.999 ZM52.571,11.999 L55.857,11.999 L55.857,14.999 L52.571,14.999 L52.571,11.999 ZM46.000,11.999 L49.286,11.999 L49.286,14.999 L46.000,14.999 L46.000,11.999 ZM39.429,11.999 L42.714,11.999 L42.714,14.999 L39.429,14.999 L39.429,11.999 ZM32.857,11.999 L36.143,11.999 L36.143,14.999 L32.857,14.999 L32.857,11.999 ZM26.286,11.999 L29.571,11.999 L29.571,14.999 L26.286,14.999 L26.286,11.999 ZM19.714,11.999 L23.000,11.999 L23.000,14.999 L19.714,14.999 L19.714,11.999 ZM13.143,11.999 L16.429,11.999 L16.429,14.999 L13.143,14.999 L13.143,11.999 ZM6.571,11.999 L9.857,11.999 L9.857,14.999 L6.571,14.999 L6.571,11.999 ZM-0.000,11.999 L3.286,11.999 L3.286,14.999 L-0.000,14.999 L-0.000,11.999 Z" class="cls-1"/>
  </g>
</svg>
