<svg xmlns="http://www.w3.org/2000/svg" xmlns:xlink="http://www.w3.org/1999/xlink" preserveAspectRatio="xMidYMid" width="63" height="40" viewBox="0 0 63 40">
  <defs>
    <style>
      .cls-1 {
        fill: #f6466c;
        fill-rule: evenodd;
      }
    </style>
  </defs>
  <path d="M54.446,35.698 C53.596,35.989 52.730,36.126 51.879,36.126 C48.534,36.126 45.406,33.999 44.275,30.630 C42.856,26.406 45.110,21.806 49.300,20.375 C53.489,18.943 58.050,21.216 59.470,25.441 C60.888,29.666 58.635,34.267 54.446,35.698 ZM57.722,26.038 C56.851,23.446 54.442,21.808 51.868,21.808 C51.212,21.808 50.546,21.913 49.892,22.137 C46.666,23.239 44.931,26.781 46.022,30.034 C47.115,33.286 50.628,35.037 53.853,33.935 C57.079,32.834 58.814,29.292 57.722,26.038 ZM61.809,33.075 C60.462,35.778 58.147,37.779 55.290,38.711 C54.216,39.060 53.104,39.235 51.989,39.235 C50.287,39.235 48.576,38.831 46.975,38.032 C44.324,36.712 42.340,34.493 41.388,31.784 C40.677,29.757 40.554,27.583 41.035,25.500 C41.503,23.476 42.514,21.626 43.960,20.149 C45.191,18.890 45.615,17.096 45.067,15.464 L44.756,14.539 C41.218,14.879 37.949,16.810 35.935,19.781 L35.403,20.564 C36.130,21.459 36.568,22.603 36.568,23.847 C36.568,25.953 35.318,27.769 33.528,28.583 L33.845,29.878 L35.677,29.878 C36.187,29.878 36.599,30.294 36.599,30.809 C36.599,31.322 36.187,31.739 35.677,31.739 L33.122,31.739 C32.697,31.739 32.328,31.447 32.226,31.032 L31.736,29.030 C31.631,29.037 31.525,29.041 31.418,29.041 C30.807,29.041 30.220,28.932 29.676,28.735 C28.562,29.772 27.095,30.356 25.563,30.356 L23.541,30.356 C23.293,31.612 22.848,32.825 22.218,33.940 C22.048,34.241 21.736,34.409 21.415,34.409 C21.261,34.409 21.103,34.370 20.959,34.288 C20.517,34.033 20.362,33.465 20.614,33.019 C21.472,31.501 21.925,29.770 21.925,28.013 C21.925,25.700 21.132,23.439 19.691,21.644 C19.369,21.245 19.431,20.659 19.827,20.336 C20.223,20.012 20.805,20.074 21.125,20.472 C22.339,21.984 23.162,23.775 23.537,25.668 L25.564,25.668 C25.905,25.668 26.229,25.544 26.482,25.325 C26.344,24.857 26.268,24.361 26.268,23.847 C26.268,21.107 28.386,18.856 31.057,18.669 L32.098,17.134 C32.436,16.635 32.800,16.157 33.184,15.703 L27.725,15.703 C24.646,15.703 21.697,14.226 19.835,11.754 L17.699,8.917 C17.687,8.901 17.676,8.884 17.666,8.868 L13.814,8.868 C13.138,8.868 12.507,8.532 12.125,7.971 C11.742,7.410 11.659,6.694 11.902,6.059 C12.735,3.877 14.921,2.577 17.218,2.899 L24.052,3.859 C25.278,4.031 26.204,5.102 26.204,6.351 C26.204,7.738 25.084,8.868 23.709,8.868 L22.794,8.868 L23.090,9.261 C24.184,10.712 25.916,11.580 27.725,11.580 L38.402,11.580 C39.910,10.818 41.537,10.284 43.235,10.009 L42.623,8.186 C41.771,8.163 40.977,7.629 40.660,6.775 C40.459,6.231 40.480,5.641 40.719,5.112 C40.860,4.800 41.068,4.533 41.325,4.324 L41.121,3.713 C40.688,2.425 41.375,1.021 42.653,0.584 C43.272,0.373 43.936,0.417 44.522,0.710 C45.108,1.001 45.546,1.506 45.756,2.130 L45.877,2.488 L52.128,0.133 C52.682,-0.075 53.303,-0.044 53.834,0.219 C54.364,0.481 54.768,0.960 54.943,1.528 L56.961,8.121 C57.202,8.910 56.986,9.755 56.395,10.328 C55.992,10.720 55.461,10.935 54.900,10.936 C54.656,10.936 54.416,10.895 54.185,10.813 L51.205,9.756 C50.084,9.360 49.492,8.115 49.886,6.985 C50.167,6.180 50.873,5.645 51.660,5.547 L51.496,5.014 L47.260,6.610 L49.698,13.869 C50.245,15.498 51.664,16.691 53.314,16.911 C54.856,17.115 56.314,17.632 57.650,18.451 C58.085,18.717 58.224,19.290 57.959,19.729 C57.786,20.018 57.482,20.177 57.170,20.177 C57.007,20.177 56.841,20.134 56.692,20.042 C55.577,19.359 54.360,18.927 53.074,18.755 C50.732,18.445 48.721,16.762 47.950,14.466 L45.530,7.261 L44.403,7.686 L46.815,14.867 C47.588,17.170 46.997,19.694 45.273,21.456 C42.752,24.033 41.930,27.752 43.128,31.163 C44.761,35.811 50.070,38.457 54.723,36.940 C57.106,36.163 59.037,34.495 60.161,32.240 C61.285,29.985 61.462,27.426 60.659,25.035 C60.382,24.209 59.994,23.428 59.504,22.714 C59.215,22.291 59.320,21.711 59.739,21.420 C60.159,21.128 60.733,21.234 61.023,21.657 C61.610,22.514 62.075,23.449 62.407,24.438 C63.370,27.304 63.158,30.371 61.809,33.075 ZM27.332,27.004 C26.812,27.341 26.201,27.530 25.563,27.530 L23.761,27.530 C23.767,27.690 23.771,27.851 23.771,28.013 C23.771,28.174 23.767,28.334 23.760,28.495 L25.563,28.495 C26.440,28.495 27.286,28.219 27.990,27.720 C27.749,27.502 27.529,27.262 27.332,27.004 ZM31.418,20.517 C29.596,20.517 28.114,22.011 28.114,23.848 C28.114,25.639 29.523,27.104 31.282,27.177 L30.522,24.072 C30.400,23.572 30.702,23.068 31.197,22.944 C31.691,22.821 32.192,23.126 32.314,23.625 L33.074,26.729 C34.058,26.152 34.722,25.077 34.722,23.848 C34.722,22.011 33.240,20.517 31.418,20.517 ZM23.708,7.006 C24.067,7.006 24.358,6.712 24.358,6.351 C24.358,6.025 24.117,5.747 23.798,5.702 L16.963,4.743 C16.817,4.722 16.671,4.713 16.526,4.713 C15.250,4.713 14.094,5.496 13.624,6.728 C13.592,6.811 13.619,6.877 13.646,6.918 C13.674,6.958 13.725,7.006 13.813,7.006 L23.708,7.006 ZM27.724,13.442 C25.342,13.442 23.060,12.299 21.620,10.386 L20.477,8.868 L19.979,8.868 L21.305,10.628 C22.819,12.640 25.220,13.842 27.724,13.842 L35.027,13.842 C35.184,13.705 35.344,13.572 35.506,13.442 L27.724,13.442 ZM39.080,13.320 C39.058,13.333 39.036,13.344 39.013,13.355 C36.876,14.479 35.018,16.125 33.622,18.185 L33.107,18.943 C33.415,19.051 33.711,19.188 33.990,19.352 L34.411,18.730 C36.651,15.426 40.238,13.237 44.150,12.734 L43.836,11.801 C42.159,12.036 40.554,12.554 39.080,13.320 ZM44.007,2.727 C43.956,2.573 43.848,2.450 43.704,2.377 C43.560,2.306 43.398,2.295 43.246,2.347 C42.931,2.455 42.762,2.800 42.868,3.116 L43.019,3.566 L44.147,3.141 L44.007,2.727 ZM51.766,2.926 C52.005,2.836 52.269,2.849 52.497,2.962 C52.724,3.075 52.896,3.278 52.971,3.523 L53.881,6.496 C53.984,6.832 53.891,7.197 53.639,7.441 C53.388,7.685 53.023,7.765 52.694,7.648 L52.024,7.411 C51.990,7.399 51.955,7.393 51.921,7.393 C51.792,7.393 51.672,7.473 51.627,7.603 C51.571,7.765 51.656,7.944 51.818,8.001 L54.798,9.058 C54.908,9.097 55.032,9.068 55.116,8.988 C55.200,8.905 55.232,8.783 55.197,8.669 L53.179,2.078 C53.154,1.996 53.096,1.927 53.019,1.890 C52.943,1.851 52.854,1.847 52.774,1.878 L42.571,5.722 C42.467,5.761 42.418,5.841 42.397,5.885 C42.378,5.929 42.350,6.018 42.389,6.125 C42.449,6.286 42.629,6.368 42.788,6.308 L51.766,2.926 ZM11.886,36.102 C7.463,36.102 3.864,32.474 3.864,28.013 C3.864,23.553 7.463,19.923 11.886,19.923 C16.308,19.923 19.906,23.553 19.906,28.013 C19.906,32.474 16.308,36.102 11.886,36.102 ZM11.886,21.785 C8.480,21.785 5.710,24.579 5.710,28.013 C5.710,31.447 8.480,34.241 11.886,34.241 C15.291,34.241 18.061,31.447 18.061,28.013 C18.061,24.579 15.291,21.785 11.886,21.785 ZM17.576,17.486 C18.022,17.733 18.187,18.299 17.942,18.750 C17.698,19.200 17.138,19.367 16.690,19.120 C15.226,18.314 13.565,17.887 11.886,17.887 C6.349,17.887 1.846,22.429 1.846,28.013 C1.846,33.596 6.349,38.138 11.886,38.138 C14.148,38.138 16.284,37.397 18.062,35.995 C18.464,35.679 19.044,35.751 19.358,36.155 C19.672,36.560 19.601,37.145 19.199,37.462 C17.094,39.122 14.565,39.998 11.886,39.998 C5.332,39.998 -0.000,34.622 -0.000,28.013 C-0.000,21.403 5.332,16.026 11.886,16.026 C13.873,16.026 15.841,16.531 17.576,17.486 Z" class="cls-1"/>
</svg>
