<svg xmlns="http://www.w3.org/2000/svg" xmlns:xlink="http://www.w3.org/1999/xlink" preserveAspectRatio="xMidYMid" width="51" height="40" viewBox="0 0 51 40">
  <defs>
    <style>
      .cls-1 {
        fill: #f6466c;
        fill-rule: evenodd;
      }
    </style>
  </defs>
  <path d="M33.378,14.043 L26.261,14.043 C25.932,14.043 25.642,13.827 25.547,13.512 L25.016,11.762 L22.512,20.021 C22.416,20.338 22.127,20.553 21.798,20.553 C21.470,20.553 21.179,20.338 21.084,20.021 L18.816,12.542 L12.024,12.542 C11.612,12.542 11.278,12.205 11.278,11.792 C11.278,11.378 11.612,11.042 12.024,11.042 L19.369,11.042 C19.698,11.042 19.988,11.257 20.084,11.574 L21.798,17.229 L24.302,8.969 C24.397,8.652 24.688,8.438 25.016,8.438 C25.344,8.438 25.634,8.652 25.730,8.969 L26.814,12.544 L33.378,12.544 C33.791,12.544 34.125,12.879 34.125,13.294 C34.125,13.707 33.791,14.043 33.378,14.043 ZM42.234,29.593 C37.613,34.473 32.437,38.195 30.426,39.569 C30.006,39.855 29.525,39.999 29.044,39.999 C28.563,39.999 28.082,39.855 27.662,39.569 C25.728,38.249 20.797,34.706 16.286,30.043 L8.726,30.043 L8.726,33.080 C8.726,34.045 7.945,34.829 6.984,34.829 L5.358,34.829 C4.398,34.829 3.617,34.045 3.617,33.080 L3.617,33.017 C3.536,33.029 3.452,33.037 3.368,33.037 L1.742,33.037 C0.782,33.037 -0.000,32.252 -0.000,31.288 L-0.000,22.733 C-0.000,21.768 0.782,20.984 1.742,20.984 L3.368,20.984 C3.452,20.984 3.536,20.992 3.617,21.004 L3.617,20.940 C3.617,19.976 4.398,19.191 5.358,19.191 L6.984,19.191 C7.945,19.191 8.726,19.976 8.726,20.940 L8.726,23.905 L11.228,23.905 C8.474,19.832 7.082,15.938 7.089,12.312 C7.101,5.519 12.612,-0.001 19.375,-0.001 C19.381,-0.001 19.387,-0.001 19.393,-0.001 C23.130,0.005 26.618,1.690 28.961,4.623 C29.003,4.676 29.085,4.676 29.127,4.623 C31.470,1.690 34.958,0.004 38.695,-0.001 C38.701,-0.001 38.707,-0.001 38.713,-0.001 C41.855,-0.001 44.849,1.199 47.145,3.382 C47.445,3.666 47.458,4.141 47.175,4.441 C46.891,4.742 46.419,4.755 46.119,4.471 C44.101,2.554 41.471,1.499 38.713,1.499 L38.697,1.499 C35.414,1.504 32.351,2.984 30.292,5.561 C29.987,5.943 29.532,6.163 29.044,6.163 C28.556,6.163 28.101,5.944 27.796,5.561 C25.737,2.984 22.674,1.504 19.390,1.499 L19.375,1.499 C13.433,1.499 8.592,6.348 8.581,12.316 C8.575,15.878 10.079,19.776 13.051,23.905 L19.627,23.905 C20.040,23.905 20.374,24.240 20.374,24.654 C20.374,25.068 20.040,25.404 19.627,25.404 L8.726,25.404 L8.726,28.544 L25.356,28.544 L25.356,25.404 L23.003,25.404 C22.591,25.404 22.257,25.068 22.257,24.654 C22.257,24.240 22.591,23.905 23.003,23.905 L25.356,23.905 L25.356,20.940 C25.356,19.976 26.138,19.192 27.098,19.192 L28.724,19.192 C29.685,19.192 30.466,19.976 30.466,20.940 L30.466,21.004 C30.547,20.992 30.630,20.984 30.715,20.984 L32.341,20.984 C33.301,20.984 34.083,21.768 34.083,22.733 L34.083,31.288 C34.083,32.253 33.301,33.037 32.341,33.037 L30.715,33.037 C30.630,33.037 30.547,33.029 30.466,33.018 L30.466,33.080 C30.466,34.045 29.685,34.829 28.724,34.829 L27.098,34.829 C26.138,34.829 25.356,34.045 25.356,33.080 L25.356,30.043 L18.392,30.043 C22.506,34.090 26.754,37.135 28.501,38.329 C28.831,38.554 29.257,38.554 29.587,38.329 C31.558,36.982 36.631,33.335 41.152,28.560 C46.704,22.694 49.516,17.228 49.506,12.315 C49.503,10.472 49.025,8.650 48.124,7.045 C47.922,6.685 48.049,6.228 48.408,6.024 C48.767,5.821 49.222,5.948 49.425,6.310 C50.451,8.137 50.996,10.212 50.999,12.312 C51.009,17.623 48.060,23.437 42.234,29.593 ZM7.233,20.940 C7.233,20.803 7.122,20.690 6.984,20.690 L5.359,20.690 C5.221,20.690 5.110,20.803 5.110,20.940 L5.110,23.653 C5.110,24.068 4.776,24.403 4.364,24.403 C3.951,24.403 3.617,24.068 3.617,23.653 L3.617,22.733 C3.617,22.596 3.505,22.483 3.368,22.483 L1.742,22.483 C1.604,22.483 1.493,22.596 1.493,22.733 L1.493,31.288 C1.493,31.425 1.604,31.538 1.742,31.538 L3.368,31.538 C3.505,31.538 3.617,31.425 3.617,31.288 L3.617,27.153 C3.617,26.739 3.951,26.403 4.363,26.403 C4.776,26.403 5.110,26.739 5.110,27.153 L5.110,33.080 C5.110,33.219 5.221,33.331 5.358,33.331 L6.984,33.331 C7.122,33.331 7.233,33.219 7.233,33.080 L7.233,20.940 ZM30.466,31.288 C30.466,31.425 30.578,31.538 30.715,31.538 L32.341,31.538 C32.478,31.538 32.590,31.425 32.590,31.288 L32.590,22.733 C32.590,22.596 32.478,22.483 32.341,22.483 L30.715,22.483 C30.578,22.483 30.466,22.596 30.466,22.733 L30.466,31.288 ZM26.850,33.080 C26.850,33.218 26.961,33.331 27.098,33.331 L28.724,33.331 C28.862,33.331 28.973,33.218 28.973,33.080 L28.973,20.940 C28.973,20.803 28.862,20.690 28.724,20.690 L27.098,20.690 C26.961,20.690 26.850,20.803 26.850,20.940 L26.850,33.080 Z" class="cls-1"/>
</svg>
