<svg xmlns="http://www.w3.org/2000/svg" xmlns:xlink="http://www.w3.org/1999/xlink" preserveAspectRatio="xMidYMid" width="42" height="41" viewBox="0 0 42 41">
  <defs>
    <style>
      .cls-1 {
        fill: #f6466c;
        fill-rule: evenodd;
      }
    </style>
  </defs>
  <path d="M41.299,40.999 L4.900,40.999 C3.489,40.998 2.146,40.393 1.216,39.339 C0.286,38.285 -0.142,36.884 0.042,35.495 C0.421,33.039 2.568,31.236 5.071,31.272 L18.200,31.272 L18.200,23.868 L17.710,23.242 L16.000,26.071 C15.901,26.235 15.739,26.351 15.552,26.392 L9.639,27.696 L9.384,28.457 C9.098,29.308 8.296,29.882 7.393,29.882 L6.300,29.882 C5.914,29.882 5.600,29.572 5.600,29.188 L5.600,25.018 C5.600,24.711 5.803,24.440 6.100,24.352 L12.662,22.397 L13.300,17.331 L13.300,12.373 L11.813,12.819 L11.743,15.097 C11.708,16.223 10.778,17.118 9.643,17.118 L9.578,17.118 C8.883,17.098 8.243,16.737 7.869,16.155 C7.635,15.778 7.522,15.339 7.545,14.897 L7.630,12.075 C7.675,10.604 8.634,9.315 10.038,8.838 L13.210,7.764 C13.404,7.701 13.606,7.667 13.810,7.660 L13.835,7.648 C13.968,7.582 14.108,7.535 14.248,7.477 C12.813,6.387 12.241,4.509 12.828,2.813 C13.415,1.116 15.029,-0.017 16.836,-0.002 C18.642,0.013 20.237,1.173 20.795,2.880 C21.352,4.585 20.749,6.454 19.295,7.520 C19.574,7.768 19.783,8.084 19.902,8.436 L20.805,11.122 L23.100,11.122 C23.730,11.123 24.327,11.405 24.726,11.889 C25.125,12.374 25.284,13.010 25.159,13.624 C24.933,14.613 24.039,15.309 23.017,15.291 L20.300,15.291 L20.300,17.212 L23.026,22.623 C23.091,22.752 23.114,22.897 23.091,23.040 L22.215,28.693 L22.995,28.921 C23.887,29.184 24.500,29.996 24.500,30.921 L24.500,31.272 L28.700,31.272 L28.700,29.188 C28.700,28.834 28.967,28.537 29.321,28.498 L32.330,28.145 L34.145,14.337 L30.564,16.575 C30.452,16.644 30.323,16.681 30.191,16.681 C30.138,16.681 30.087,16.675 30.036,16.663 C29.855,16.622 29.697,16.512 29.598,16.356 L28.108,14.003 C27.902,13.678 28.000,13.250 28.327,13.046 L38.398,6.754 C38.725,6.550 39.157,6.648 39.363,6.972 L40.855,9.325 C41.061,9.650 40.962,10.079 40.635,10.283 L39.199,11.180 L39.199,27.344 L41.218,27.108 C41.416,27.083 41.616,27.146 41.765,27.279 C41.914,27.411 42.000,27.600 41.999,27.798 L41.999,40.304 C41.999,40.688 41.686,40.999 41.299,40.999 ZM13.300,9.202 L10.488,10.155 C9.636,10.444 9.053,11.226 9.026,12.120 L8.939,15.015 C8.928,15.398 9.232,15.718 9.618,15.730 C10.003,15.739 10.324,15.439 10.338,15.056 L10.423,12.277 C10.432,11.978 10.632,11.719 10.920,11.632 L13.300,10.924 L13.300,9.202 ZM13.995,23.020 C13.961,23.294 13.767,23.521 13.501,23.600 L7.000,25.536 L7.000,28.493 L7.390,28.493 C7.691,28.493 7.958,28.301 8.053,28.018 L8.434,26.884 C8.512,26.652 8.706,26.478 8.946,26.424 L14.953,25.100 L16.788,22.069 L14.484,19.130 L13.995,23.020 ZM19.600,4.174 C19.600,2.639 18.346,1.395 16.800,1.395 C15.254,1.395 14.000,2.639 14.000,4.174 C14.000,5.710 15.254,6.953 16.800,6.953 C18.346,6.953 19.600,5.710 19.600,4.174 ZM23.100,13.902 C23.487,13.902 23.800,13.591 23.800,13.207 C23.800,12.823 23.487,12.512 23.100,12.512 L20.300,12.512 C19.999,12.512 19.731,12.320 19.636,12.037 L18.572,8.873 C18.466,8.555 18.166,8.340 17.828,8.340 L17.715,8.340 C17.419,8.340 17.147,8.507 17.015,8.771 C16.917,8.966 16.905,9.193 16.983,9.397 L18.685,13.902 L23.100,13.902 ZM23.100,30.921 C23.098,30.613 22.895,30.343 22.598,30.254 L21.232,29.854 C20.896,29.756 20.686,29.426 20.739,29.082 L21.674,23.047 L18.974,17.686 C18.925,17.590 18.900,17.484 18.900,17.375 L18.900,15.291 L18.200,15.291 C17.908,15.292 17.647,15.112 17.544,14.841 L15.671,9.884 C15.505,9.434 15.493,8.941 15.638,8.484 C15.317,8.553 15.003,8.652 14.700,8.780 L14.700,17.138 L19.451,23.202 L19.453,23.202 C19.548,23.325 19.600,23.475 19.600,23.630 L19.600,31.272 L23.100,31.272 L23.100,30.921 ZM4.900,32.662 C2.967,32.662 1.400,34.217 1.400,36.136 C1.400,38.054 2.967,39.609 4.900,39.609 L29.400,39.609 L32.899,39.609 C34.833,39.609 36.399,38.054 36.399,36.136 C36.399,34.217 34.833,32.662 32.899,32.662 L4.900,32.662 ZM33.765,27.979 L37.800,27.507 L37.800,12.054 L35.683,13.377 L33.765,27.979 ZM39.301,9.477 L38.555,8.300 L29.665,13.852 L30.411,15.028 L39.301,9.477 ZM40.599,28.579 L30.100,29.806 L30.100,31.272 L32.899,31.272 C34.892,31.270 36.686,32.466 37.438,34.298 C38.189,36.129 37.748,38.229 36.322,39.609 L40.599,39.609 L40.599,28.579 ZM34.999,36.136 C34.999,37.287 34.060,38.220 32.899,38.220 L4.900,38.220 C3.741,38.220 2.800,37.287 2.800,36.136 C2.800,34.984 3.741,34.051 4.900,34.051 L32.899,34.051 C34.060,34.051 34.999,34.984 34.999,36.136 ZM4.900,35.441 C4.514,35.441 4.200,35.751 4.200,36.136 C4.200,36.519 4.514,36.830 4.900,36.830 C5.287,36.830 5.600,36.519 5.600,36.136 C5.600,35.751 5.287,35.441 4.900,35.441 ZM8.529,35.441 L6.872,35.441 C7.043,35.888 7.043,36.383 6.872,36.830 L8.529,36.830 C8.358,36.383 8.358,35.888 8.529,35.441 ZM10.500,35.441 C10.114,35.441 9.800,35.751 9.800,36.136 C9.800,36.519 10.114,36.830 10.500,36.830 C10.887,36.830 11.200,36.519 11.200,36.136 C11.200,35.751 10.887,35.441 10.500,35.441 ZM14.129,35.441 L12.472,35.441 C12.643,35.888 12.643,36.383 12.472,36.830 L14.129,36.830 C13.957,36.383 13.957,35.888 14.129,35.441 ZM16.100,35.441 C15.713,35.441 15.400,35.751 15.400,36.136 C15.400,36.519 15.713,36.830 16.100,36.830 C16.487,36.830 16.800,36.519 16.800,36.136 C16.800,35.751 16.487,35.441 16.100,35.441 ZM19.729,35.441 L18.071,35.441 C18.243,35.888 18.243,36.383 18.071,36.830 L19.729,36.830 C19.557,36.383 19.557,35.888 19.729,35.441 ZM21.700,35.441 C21.313,35.441 21.000,35.751 21.000,36.136 C21.000,36.519 21.313,36.830 21.700,36.830 C22.087,36.830 22.400,36.519 22.400,36.136 C22.400,35.751 22.087,35.441 21.700,35.441 ZM25.329,35.441 L23.671,35.441 C23.843,35.888 23.843,36.383 23.671,36.830 L25.329,36.830 C25.157,36.383 25.157,35.888 25.329,35.441 ZM27.300,35.441 C26.913,35.441 26.600,35.751 26.600,36.136 C26.600,36.519 26.913,36.830 27.300,36.830 C27.686,36.830 28.000,36.519 28.000,36.136 C28.000,35.751 27.686,35.441 27.300,35.441 ZM30.928,35.441 L29.271,35.441 C29.443,35.888 29.443,36.383 29.271,36.830 L30.928,36.830 C30.757,36.383 30.757,35.888 30.928,35.441 ZM32.200,36.136 C32.200,36.519 32.513,36.830 32.899,36.830 C33.286,36.830 33.600,36.519 33.600,36.136 C33.600,35.751 33.286,35.441 32.899,35.441 C32.513,35.441 32.200,35.751 32.200,36.136 Z" class="cls-1"/>
</svg>
