<svg xmlns="http://www.w3.org/2000/svg" xmlns:xlink="http://www.w3.org/1999/xlink" preserveAspectRatio="xMidYMid" width="41" height="40" viewBox="0 0 41 40">
  <defs>
    <style>
      .cls-1 {
        fill: #f6466c;
        fill-rule: evenodd;
      }
    </style>
  </defs>
  <path d="M30.205,14.011 C30.516,14.626 30.674,15.198 30.674,15.716 C30.674,17.558 28.742,19.483 28.107,20.115 C27.565,20.655 25.828,21.745 24.567,22.508 C28.190,23.331 26.843,22.730 30.782,24.089 C32.394,24.643 33.325,26.306 32.987,27.938 L31.226,36.433 L32.619,36.779 C33.599,37.023 34.336,37.782 34.568,38.724 L40.359,38.724 C40.713,38.724 41.000,39.009 41.000,39.362 C41.000,39.714 40.713,39.999 40.359,39.999 L0.643,39.999 C0.289,39.999 0.003,39.714 0.003,39.362 C0.003,39.009 0.289,38.724 0.643,38.724 L1.478,38.724 C1.189,38.318 1.190,38.237 0.153,35.575 C-0.227,34.598 0.119,33.510 0.995,32.928 L5.998,29.607 C14.257,22.700 13.949,22.902 15.542,21.860 C16.179,21.444 16.223,21.391 16.385,21.354 C16.437,21.342 17.263,20.706 17.923,20.088 C18.181,19.846 18.587,19.858 18.829,20.114 C19.072,20.370 19.060,20.774 18.802,21.015 C18.216,21.564 17.611,22.058 17.005,22.485 C16.510,23.799 16.847,26.135 18.413,26.941 C18.596,27.035 18.857,27.136 19.029,27.194 C21.653,28.102 20.936,27.264 28.581,27.955 C28.939,27.987 29.200,28.307 29.160,28.662 L28.822,31.611 L30.918,31.611 L31.732,27.680 C31.943,26.663 31.358,25.638 30.373,25.297 C26.072,23.826 28.216,24.722 22.768,23.393 L20.422,23.101 C20.071,23.058 19.822,22.739 19.866,22.390 C19.910,22.040 20.229,21.792 20.581,21.836 L22.748,22.105 C24.323,21.185 26.679,19.734 27.197,19.218 C28.655,17.765 29.393,16.588 29.393,15.716 C29.393,15.501 29.337,15.251 29.234,14.978 C28.527,15.681 28.427,15.863 28.079,15.863 C27.514,15.863 27.221,15.177 27.626,14.775 L39.413,3.047 C39.610,2.851 39.719,2.591 39.719,2.313 C39.719,1.393 38.592,0.925 37.936,1.577 C37.685,1.827 37.280,1.827 37.030,1.577 C36.780,1.329 36.780,0.926 37.030,0.676 C38.491,-0.777 41.000,0.264 41.000,2.313 C41.000,2.931 40.758,3.512 40.319,3.949 L30.205,14.011 ZM6.073,31.089 L1.706,33.988 C1.333,34.236 1.186,34.699 1.348,35.114 L2.323,37.616 C2.606,38.344 3.331,38.773 4.074,38.720 L3.483,35.340 C3.439,35.087 3.552,34.832 3.770,34.693 L6.743,32.809 L6.073,31.089 ZM15.517,23.411 C14.552,24.084 13.491,25.004 7.145,30.313 L7.869,32.172 C11.790,30.160 14.986,28.894 17.368,27.792 C16.029,26.829 15.414,25.023 15.517,23.411 ZM18.875,28.486 C17.882,28.978 16.740,29.479 15.430,30.051 C8.167,33.229 7.731,33.694 4.818,35.540 L5.375,38.724 L26.873,38.724 C26.655,38.266 26.601,37.748 26.728,37.243 C27.112,35.715 26.880,37.297 27.812,29.167 C21.318,28.615 21.505,29.316 18.875,28.486 ZM29.848,36.774 L30.653,32.886 L28.675,32.886 C28.203,37.003 28.381,35.918 27.971,37.553 C27.821,38.148 28.274,38.724 28.891,38.724 L33.209,38.724 C33.030,38.379 32.708,38.116 32.309,38.016 L30.320,37.521 C29.986,37.438 29.778,37.109 29.848,36.774 ZM26.149,13.305 C26.024,13.430 25.860,13.492 25.696,13.492 C25.131,13.492 24.838,12.807 25.243,12.404 L26.184,11.468 L25.827,11.201 C25.475,11.063 25.135,10.889 24.814,10.682 C24.208,12.916 23.324,14.987 22.180,16.847 C21.997,17.145 21.603,17.242 21.299,17.058 C20.997,16.874 20.903,16.481 21.087,16.181 C22.265,14.266 23.151,12.111 23.725,9.770 C22.867,8.848 22.351,7.688 22.260,6.435 C20.641,6.525 19.458,4.983 19.987,3.496 L20.416,2.281 C21.053,0.488 23.562,0.264 24.526,1.903 C26.539,0.895 29.032,1.606 30.134,3.538 C30.783,4.676 30.674,5.521 30.674,7.001 L33.456,4.233 C34.421,3.272 34.953,1.995 34.953,0.636 C34.953,0.284 35.240,-0.001 35.593,-0.001 C35.948,-0.001 36.234,0.284 36.234,0.636 C36.234,2.335 35.569,3.933 34.361,5.134 C20.943,18.485 32.805,6.683 26.149,13.305 ZM22.559,2.064 C22.148,2.064 21.764,2.311 21.624,2.705 L21.195,3.920 C20.908,4.726 21.820,5.489 22.638,5.029 C23.048,4.795 23.076,4.488 23.493,3.310 C23.711,2.695 23.231,2.064 22.559,2.064 ZM29.367,5.173 C28.515,6.009 27.354,6.475 26.152,6.475 C25.326,6.475 25.263,5.212 26.198,5.199 C27.239,5.185 28.212,4.694 28.814,3.859 C27.866,2.632 26.103,2.371 24.818,3.203 C24.786,3.553 24.701,3.735 24.272,4.948 C24.145,5.303 23.911,5.657 23.570,5.932 C23.516,5.976 23.525,5.954 23.525,6.035 C23.525,6.860 23.765,7.642 24.204,8.317 L24.513,7.555 C24.632,7.261 24.947,7.104 25.249,7.173 C25.642,7.262 25.846,7.674 25.701,8.032 L25.163,9.363 C25.772,9.847 26.528,10.181 27.363,10.294 L29.393,8.275 C29.393,5.262 29.402,5.420 29.367,5.173 ZM20.597,18.056 C20.875,18.274 20.922,18.674 20.703,18.951 C20.671,18.992 20.638,19.032 20.605,19.072 C20.383,19.347 19.977,19.393 19.703,19.173 C19.427,18.953 19.381,18.554 19.603,18.280 C19.637,18.236 19.667,18.200 19.697,18.161 C19.916,17.885 20.319,17.837 20.597,18.056 Z" class="cls-1"/>
</svg>
