<svg xmlns="http://www.w3.org/2000/svg" xmlns:xlink="http://www.w3.org/1999/xlink" preserveAspectRatio="xMidYMid" width="48" height="40" viewBox="0 0 48 40">
  <defs>
    <style>
      .cls-1 {
        fill: #f6466c;
        fill-rule: evenodd;
      }
    </style>
  </defs>
  <path d="M10.672,12.401 L11.306,11.131 C12.217,11.598 13.103,12.133 13.940,12.724 L13.136,13.891 C12.353,13.339 11.524,12.838 10.672,12.401 ZM17.572,15.956 L16.530,16.912 C16.228,16.575 15.910,16.242 15.584,15.926 L16.559,14.900 C16.908,15.239 17.248,15.595 17.572,15.956 ZM13.867,14.432 L14.722,13.302 C15.106,13.600 15.484,13.914 15.846,14.236 L14.918,15.305 C14.579,15.004 14.226,14.711 13.867,14.432 ZM30.428,15.956 C31.111,15.193 31.858,14.471 32.648,13.810 L33.544,14.907 C32.805,15.525 32.108,16.200 31.470,16.912 L30.428,15.956 ZM35.367,13.548 C34.989,13.798 34.615,14.064 34.255,14.339 L33.408,13.202 C33.793,12.908 34.193,12.624 34.597,12.357 L35.367,13.548 ZM36.693,11.131 L37.328,12.401 C36.925,12.608 36.524,12.830 36.136,13.063 L35.419,11.838 C35.834,11.590 36.263,11.352 36.693,11.131 ZM40.971,32.883 C36.604,37.304 30.850,39.811 24.703,39.989 L24.703,39.998 L23.297,39.998 L23.297,39.989 C17.150,39.811 11.396,37.304 7.029,32.883 C2.496,28.295 -0.000,22.193 -0.000,15.704 L-0.000,14.992 L0.703,14.992 C7.114,14.992 13.141,17.519 17.674,22.108 C20.215,24.681 22.117,27.730 23.297,31.055 L23.297,24.542 C21.398,17.682 16.434,12.097 9.929,9.460 C9.345,11.257 8.983,13.112 8.851,14.984 L7.448,14.882 C7.606,12.640 8.075,10.422 8.841,8.290 L9.082,7.621 L9.742,7.865 C13.403,9.213 16.710,11.460 19.309,14.363 C21.335,16.626 22.933,19.286 24.000,22.150 C25.067,19.286 26.665,16.626 28.691,14.363 C31.289,11.460 34.597,9.213 38.257,7.865 L38.918,7.621 L39.159,8.290 C39.925,10.423 40.394,12.640 40.552,14.882 L39.149,14.984 C39.017,13.112 38.655,11.257 38.071,9.460 C33.456,11.331 29.617,14.685 27.097,18.926 L29.750,18.926 L29.750,20.350 L26.318,20.350 C25.651,21.678 25.108,23.081 24.703,24.542 L24.703,31.055 C25.883,27.730 27.785,24.681 30.326,22.108 C34.859,17.519 40.886,14.992 47.297,14.992 L48.000,14.992 L48.000,15.704 C48.000,22.193 45.503,28.295 40.971,32.883 ZM1.417,16.427 C1.529,20.107 2.497,23.637 4.223,26.784 L8.531,26.784 L8.531,28.208 L5.072,28.208 C5.919,29.516 6.906,30.745 8.024,31.877 C12.122,36.025 17.518,38.384 23.286,38.564 C22.915,26.526 13.310,16.803 1.417,16.427 ZM31.321,23.114 C27.222,27.264 24.892,32.726 24.714,38.564 C36.606,38.189 46.212,28.465 46.583,16.427 C40.815,16.607 35.419,18.965 31.321,23.114 ZM43.083,22.597 L44.407,23.074 C43.330,26.139 41.616,28.875 39.313,31.205 L38.319,30.199 C40.473,28.019 42.075,25.461 43.083,22.597 ZM43.720,20.398 L45.089,20.722 C44.980,21.198 44.853,21.676 44.712,22.142 L43.367,21.725 C43.499,21.290 43.617,20.843 43.720,20.398 ZM44.109,18.140 L45.506,18.307 C45.449,18.793 45.376,19.282 45.288,19.761 L43.906,19.500 C43.988,19.053 44.057,18.595 44.109,18.140 ZM27.830,29.658 C28.041,29.220 28.271,28.782 28.513,28.359 L29.731,29.071 C29.505,29.466 29.291,29.875 29.093,30.284 L27.830,29.658 ZM28.214,32.394 L26.889,31.917 C27.051,31.457 27.231,30.997 27.423,30.548 L28.713,31.116 C28.533,31.535 28.365,31.964 28.214,32.394 ZM27.577,34.593 L26.207,34.270 C26.317,33.795 26.444,33.316 26.585,32.849 L27.930,33.265 C27.798,33.701 27.679,34.148 27.577,34.593 ZM27.187,36.851 L25.791,36.684 C25.847,36.199 25.921,35.709 26.009,35.230 L27.391,35.490 C27.309,35.939 27.240,36.397 27.187,36.851 ZM17.009,24.859 L15.952,25.797 C15.655,25.454 15.342,25.116 15.022,24.792 L16.016,23.785 C16.358,24.131 16.692,24.492 17.009,24.859 ZM18.502,26.789 L17.348,27.602 C17.091,27.228 16.817,26.858 16.534,26.500 L17.632,25.610 C17.934,25.992 18.227,26.388 18.502,26.789 ZM22.209,36.684 L20.813,36.851 C20.459,33.804 19.462,30.949 17.849,28.367 L19.038,27.606 C20.763,30.370 21.830,33.424 22.209,36.684 ZM23.448,5.011 L24.552,4.129 C24.851,4.513 25.141,4.911 25.413,5.314 L24.253,6.119 C23.999,5.742 23.728,5.370 23.448,5.011 ZM28.598,12.606 L27.230,12.934 C26.904,11.541 26.434,10.184 25.832,8.897 L27.102,8.288 C27.747,9.664 28.250,11.117 28.598,12.606 ZM24.748,6.886 L25.943,6.136 C26.198,6.551 26.441,6.979 26.668,7.411 L25.425,8.078 C25.214,7.676 24.986,7.274 24.748,6.886 ZM22.016,16.289 C21.283,15.220 20.463,14.202 19.577,13.261 L20.595,12.279 C21.531,13.272 22.397,14.348 23.171,15.477 L22.016,16.289 ZM24.000,2.028 C21.485,4.740 19.653,8.039 18.686,11.611 L17.330,11.234 C18.424,7.193 20.559,3.482 23.503,0.502 L24.000,-0.001 L24.497,0.502 C27.441,3.482 29.576,7.193 30.670,11.234 L29.314,11.611 C28.347,8.039 26.515,4.740 24.000,2.028 Z" class="cls-1"/>
</svg>
