<svg xmlns="http://www.w3.org/2000/svg" xmlns:xlink="http://www.w3.org/1999/xlink" preserveAspectRatio="xMidYMid" width="45" height="40" viewBox="0 0 45 40">
  <defs>
    <style>
      .cls-1 {
        fill: #fd5c7f;
        fill-rule: evenodd;
      }
    </style>
  </defs>
  <path d="M43.822,22.431 L42.533,22.431 L42.533,23.007 C42.533,23.877 41.829,24.585 40.964,24.585 L39.697,24.585 L39.697,28.266 C39.697,29.236 38.912,30.025 37.947,30.025 L35.811,30.025 C35.662,30.025 35.518,30.004 35.380,29.968 L35.380,30.840 C35.380,31.809 34.595,32.598 33.630,32.598 L31.494,32.598 C31.345,32.598 31.201,32.578 31.062,32.542 L31.062,32.860 C31.062,33.830 30.277,34.619 29.312,34.619 L27.176,34.619 C26.211,34.619 25.426,33.830 25.426,32.860 L25.426,22.431 L22.991,22.431 L22.991,22.518 C22.991,25.992 20.694,28.937 17.545,29.902 L17.545,37.324 C17.545,37.690 17.249,37.987 16.885,37.987 C16.521,37.987 16.226,37.690 16.226,37.324 L16.226,30.181 C15.925,30.217 15.618,30.236 15.308,30.236 L14.616,30.236 C14.252,30.236 13.956,29.939 13.956,29.574 C13.956,29.207 14.252,28.911 14.616,28.911 L15.308,28.911 C18.817,28.911 21.672,26.043 21.672,22.518 L21.672,17.240 C21.672,16.512 21.083,15.920 20.358,15.920 L15.275,15.920 L15.275,16.798 C15.275,17.488 15.834,18.050 16.522,18.050 L18.652,18.050 C19.240,18.050 19.718,18.530 19.718,19.120 L19.718,20.853 C19.718,21.444 19.240,21.924 18.652,21.924 L17.106,21.924 C16.096,21.924 15.275,22.749 15.275,23.762 L15.275,25.105 C15.275,25.471 14.980,25.768 14.616,25.768 C14.252,25.768 13.956,25.471 13.956,25.105 L13.956,23.762 C13.956,23.456 14.001,23.160 14.082,22.880 C14.069,22.880 14.057,22.881 14.044,22.881 C13.362,22.881 12.746,22.589 12.309,22.123 C11.871,22.588 11.251,22.881 10.564,22.881 C9.880,22.881 9.262,22.591 8.824,22.128 C8.387,22.591 7.769,22.881 7.084,22.881 C6.565,22.881 6.084,22.714 5.691,22.431 L5.140,22.431 L4.260,24.022 C4.232,24.072 4.217,24.129 4.217,24.186 L4.217,27.267 C4.217,28.173 4.952,28.911 5.854,28.911 L8.361,28.911 C8.725,28.911 9.021,29.208 9.021,29.574 C9.021,29.939 8.725,30.236 8.361,30.236 L5.854,30.236 C5.785,30.236 5.716,30.233 5.648,30.228 L5.648,37.324 C5.648,37.691 5.353,37.988 4.989,37.988 C4.625,37.988 4.329,37.691 4.329,37.324 L4.329,29.809 C3.473,29.290 2.899,28.345 2.899,27.267 L2.899,24.186 C2.899,23.904 2.971,23.626 3.107,23.378 L3.631,22.431 L0.660,22.431 C0.295,22.431 -0.000,22.135 -0.000,21.769 C-0.000,21.403 0.295,21.106 0.660,21.106 L4.770,21.106 C4.715,20.903 4.685,20.691 4.685,20.471 L4.685,18.577 L0.660,18.577 C0.295,18.577 -0.000,18.280 -0.000,17.915 C-0.000,17.549 0.295,17.252 0.660,17.252 L4.685,17.252 L4.685,16.634 C4.685,15.304 5.761,14.223 7.084,14.223 C7.769,14.223 8.387,14.513 8.824,14.976 C9.262,14.513 9.880,14.223 10.564,14.223 C11.251,14.223 11.871,14.515 12.309,14.981 C12.746,14.515 13.362,14.223 14.044,14.223 C14.482,14.223 14.907,14.346 15.280,14.574 L15.280,13.453 C15.280,11.726 16.678,10.320 18.397,10.320 C20.117,10.320 21.515,11.726 21.515,13.453 L21.515,14.865 C22.388,15.296 22.991,16.199 22.991,17.240 L22.991,17.252 L25.426,17.252 L25.426,6.860 C25.426,5.891 26.211,5.102 27.176,5.102 L29.312,5.102 C30.277,5.102 31.062,5.891 31.062,6.860 L31.062,7.179 C31.201,7.144 31.344,7.122 31.494,7.122 L33.630,7.122 C34.595,7.122 35.380,7.911 35.380,8.881 L35.380,9.753 C35.518,9.717 35.662,9.697 35.811,9.697 L37.947,9.697 C38.912,9.697 39.697,10.485 39.697,11.454 L39.697,15.099 L40.964,15.099 C41.829,15.099 42.533,15.807 42.533,16.676 L42.533,17.252 L43.822,17.252 C44.471,17.252 45.000,17.783 45.000,18.436 L45.000,21.248 C45.000,21.900 44.472,22.431 43.822,22.431 ZM17.106,20.599 L18.399,20.599 L18.399,19.375 L16.522,19.375 C16.495,19.375 16.469,19.374 16.443,19.373 L16.443,20.440 C16.443,20.518 16.440,20.596 16.432,20.672 C16.649,20.625 16.874,20.599 17.106,20.599 ZM8.165,16.634 C8.165,16.035 7.680,15.548 7.084,15.548 C6.488,15.548 6.003,16.035 6.003,16.634 L6.003,20.471 C6.003,21.069 6.488,21.556 7.084,21.556 C7.680,21.556 8.165,21.069 8.165,20.471 L8.165,16.634 ZM11.645,16.634 C11.645,16.035 11.160,15.548 10.564,15.548 C9.968,15.548 9.484,16.035 9.484,16.634 L9.484,20.471 C9.484,21.069 9.968,21.556 10.564,21.556 C11.160,21.556 11.645,21.069 11.645,20.471 L11.645,16.634 ZM15.124,18.958 C14.422,18.497 13.956,17.702 13.956,16.798 L13.956,15.766 C13.956,15.693 13.964,15.621 13.977,15.551 C13.412,15.588 12.964,16.073 12.964,16.665 L12.964,20.440 C12.964,21.055 13.449,21.556 14.044,21.556 C14.640,21.556 15.124,21.055 15.124,20.440 L15.124,18.958 ZM20.196,13.453 C20.196,12.456 19.389,11.646 18.397,11.646 C17.406,11.646 16.598,12.456 16.598,13.453 L16.598,14.595 L18.257,14.595 L18.257,13.923 C18.257,13.557 18.552,13.260 18.917,13.260 C19.281,13.260 19.576,13.557 19.576,13.923 L19.576,14.595 L20.196,14.595 L20.196,13.453 ZM25.426,18.577 L22.991,18.577 L22.991,21.106 L25.426,21.106 L25.426,18.577 ZM38.378,11.454 C38.378,11.216 38.185,11.021 37.947,11.021 L35.811,11.021 C35.573,11.021 35.380,11.216 35.380,11.454 L35.380,13.561 C35.380,13.927 35.084,14.223 34.720,14.223 C34.356,14.223 34.061,13.927 34.061,13.561 L34.061,8.881 C34.061,8.642 33.867,8.447 33.629,8.447 L31.494,8.447 C31.256,8.447 31.062,8.642 31.062,8.881 L31.062,24.504 C31.062,24.870 30.767,25.167 30.403,25.167 C30.038,25.167 29.743,24.870 29.743,24.504 L29.743,6.860 C29.743,6.622 29.550,6.427 29.312,6.427 L27.176,6.427 C26.938,6.427 26.745,6.622 26.745,6.860 L26.745,32.860 C26.745,33.099 26.938,33.294 27.176,33.294 L29.312,33.294 C29.550,33.294 29.743,33.099 29.743,32.860 L29.743,27.155 C29.743,26.789 30.038,26.492 30.403,26.492 C30.767,26.492 31.062,26.789 31.062,27.155 L31.062,30.840 C31.062,31.079 31.256,31.273 31.494,31.273 L33.629,31.273 C33.867,31.273 34.061,31.079 34.061,30.840 L34.061,16.211 C34.061,15.845 34.356,15.548 34.720,15.548 C35.084,15.548 35.380,15.845 35.380,16.211 L35.380,28.266 C35.380,28.505 35.573,28.699 35.811,28.699 L37.947,28.699 C38.185,28.699 38.378,28.505 38.378,28.266 L38.378,11.454 ZM41.214,16.676 C41.214,16.537 41.102,16.424 40.963,16.424 L39.697,16.424 L39.697,23.259 L40.963,23.259 C41.102,23.259 41.214,23.146 41.214,23.007 L41.214,16.676 ZM43.681,18.577 L42.533,18.577 L42.533,21.106 L43.681,21.106 L43.681,18.577 ZM22.832,4.944 L22.375,4.944 L22.375,7.590 C22.375,8.062 21.992,8.448 21.521,8.448 L19.005,8.448 C18.535,8.448 18.152,8.062 18.152,7.590 L18.152,4.944 L17.695,4.944 C17.364,4.944 17.070,4.758 16.926,4.459 C16.782,4.159 16.822,3.811 17.028,3.552 L19.597,0.322 C19.760,0.117 20.002,-0.001 20.263,-0.001 C20.263,-0.001 20.263,-0.001 20.264,-0.001 C20.525,-0.001 20.768,0.117 20.930,0.322 L23.499,3.552 L23.499,3.551 C23.705,3.811 23.745,4.159 23.601,4.458 C23.458,4.758 23.163,4.944 22.832,4.944 ZM20.263,1.605 L18.662,3.620 C19.112,3.643 19.471,4.018 19.471,4.477 L19.471,7.122 L21.056,7.122 L21.056,4.477 C21.056,4.018 21.415,3.643 21.865,3.620 L20.263,1.605 ZM37.999,31.873 C38.162,31.668 38.405,31.550 38.666,31.550 C38.927,31.550 39.170,31.668 39.333,31.873 L41.901,35.103 C42.108,35.362 42.147,35.710 42.004,36.009 C41.860,36.309 41.565,36.495 41.234,36.495 L40.778,36.495 L40.778,39.141 C40.778,39.614 40.395,39.999 39.924,39.999 L37.408,39.999 C36.937,39.999 36.555,39.614 36.555,39.141 L36.555,36.495 L36.098,36.495 C35.767,36.495 35.472,36.309 35.329,36.009 C35.185,35.710 35.224,35.362 35.431,35.103 L37.999,31.873 ZM37.873,36.027 L37.873,38.674 L39.459,38.674 L39.459,36.027 C39.459,35.570 39.818,35.195 40.268,35.171 L38.666,33.157 L37.064,35.171 C37.514,35.195 37.873,35.570 37.873,36.027 Z" class="cls-1"/>
</svg>
