<svg fill="#ffffff" xmlns="http://www.w3.org/2000/svg" xmlns:xlink="http://www.w3.org/1999/xlink" preserveAspectRatio="xMidYMid" viewBox="0 0 39 39">
  <path d="M38.350,38.992 L0.650,38.992 C0.291,38.992 -0.000,38.702 -0.000,38.342 C-0.000,37.983 0.291,37.692 0.650,37.692 L6.500,37.692 L6.500,0.642 C6.500,0.285 6.791,-0.008 7.150,-0.008 L24.050,-0.008 C24.409,-0.008 24.700,0.285 24.700,0.642 L24.700,15.592 L33.800,15.592 C34.159,15.592 34.450,15.884 34.450,16.242 L34.450,37.692 L38.350,37.692 C38.709,37.692 39.000,37.983 39.000,38.342 C39.000,38.702 38.709,38.992 38.350,38.992 ZM11.050,37.692 L13.650,37.692 L13.650,31.842 C13.650,31.482 13.359,31.193 13.000,31.193 L11.700,31.193 C11.341,31.193 11.050,31.482 11.050,31.842 L11.050,37.692 ZM23.400,1.292 L7.800,1.292 L7.800,37.692 L9.750,37.692 L9.750,31.842 C9.750,30.765 10.623,29.893 11.700,29.893 L13.000,29.893 C14.077,29.893 14.950,30.765 14.950,31.842 L14.950,37.692 L16.250,37.692 L16.250,16.242 C16.250,15.884 16.541,15.592 16.900,15.592 L23.400,15.592 L23.400,1.292 ZM33.150,16.893 L17.550,16.893 L17.550,37.692 L33.150,37.692 L33.150,16.893 ZM20.150,18.191 L24.050,18.191 C24.409,18.191 24.700,18.484 24.700,18.842 L24.700,22.740 C24.700,23.100 24.409,23.391 24.050,23.391 L20.150,23.391 C19.791,23.391 19.500,23.100 19.500,22.740 L19.500,18.842 C19.500,18.484 19.791,18.191 20.150,18.191 ZM20.800,22.092 L23.400,22.092 L23.400,19.492 L20.800,19.492 L20.800,22.092 ZM20.150,24.693 L24.050,24.693 C24.409,24.693 24.700,24.983 24.700,25.342 L24.700,29.242 C24.700,29.601 24.409,29.893 24.050,29.893 L20.150,29.893 C19.791,29.893 19.500,29.601 19.500,29.242 L19.500,25.342 C19.500,24.983 19.791,24.693 20.150,24.693 ZM20.800,28.592 L23.400,28.592 L23.400,25.993 L20.800,25.993 L20.800,28.592 ZM20.150,31.193 L24.050,31.193 C24.409,31.193 24.700,31.482 24.700,31.842 L24.700,35.744 C24.700,36.101 24.409,36.393 24.050,36.393 L20.150,36.393 C19.791,36.393 19.500,36.101 19.500,35.744 L19.500,31.842 C19.500,31.482 19.791,31.193 20.150,31.193 ZM20.800,35.093 L23.400,35.093 L23.400,32.493 L20.800,32.493 L20.800,35.093 ZM26.650,18.191 L30.550,18.191 C30.909,18.191 31.200,18.484 31.200,18.842 L31.200,22.740 C31.200,23.100 30.909,23.391 30.550,23.391 L26.650,23.391 C26.291,23.391 26.000,23.100 26.000,22.740 L26.000,18.842 C26.000,18.484 26.291,18.191 26.650,18.191 ZM27.300,22.092 L29.900,22.092 L29.900,19.492 L27.300,19.492 L27.300,22.092 ZM26.650,24.693 L30.550,24.693 C30.909,24.693 31.200,24.983 31.200,25.342 L31.200,29.242 C31.200,29.601 30.909,29.893 30.550,29.893 L26.650,29.893 C26.291,29.893 26.000,29.601 26.000,29.242 L26.000,25.342 C26.000,24.983 26.291,24.693 26.650,24.693 ZM27.300,28.592 L29.900,28.592 L29.900,25.993 L27.300,25.993 L27.300,28.592 ZM26.650,31.193 L30.550,31.193 C30.909,31.193 31.200,31.482 31.200,31.842 L31.200,35.744 C31.200,36.101 30.909,36.393 30.550,36.393 L26.650,36.393 C26.291,36.393 26.000,36.101 26.000,35.744 L26.000,31.842 C26.000,31.482 26.291,31.193 26.650,31.193 ZM27.300,35.093 L29.900,35.093 L29.900,32.493 L27.300,32.493 L27.300,35.093 ZM16.250,13.642 L16.250,9.743 C16.250,9.384 16.541,9.091 16.900,9.091 L20.800,9.091 C21.159,9.091 21.450,9.384 21.450,9.743 L21.450,13.642 C21.450,14.001 21.159,14.292 20.800,14.292 L16.900,14.292 C16.541,14.292 16.250,14.001 16.250,13.642 ZM17.550,12.992 L20.150,12.992 L20.150,10.393 L17.550,10.393 L17.550,12.992 ZM20.800,7.792 L16.900,7.792 C16.541,7.792 16.250,7.500 16.250,7.143 L16.250,3.242 C16.250,2.883 16.541,2.591 16.900,2.591 L20.800,2.591 C21.159,2.591 21.450,2.883 21.450,3.242 L21.450,7.143 C21.450,7.500 21.159,7.792 20.800,7.792 ZM20.150,3.891 L17.550,3.891 L17.550,6.492 L20.150,6.492 L20.150,3.891 ZM14.300,27.292 L10.400,27.292 C10.041,27.292 9.750,27.002 9.750,26.642 L9.750,22.740 C9.750,22.383 10.041,22.092 10.400,22.092 L14.300,22.092 C14.659,22.092 14.950,22.383 14.950,22.740 L14.950,26.642 C14.950,27.002 14.659,27.292 14.300,27.292 ZM13.650,23.391 L11.050,23.391 L11.050,25.993 L13.650,25.993 L13.650,23.391 ZM14.300,20.791 L10.400,20.791 C10.041,20.791 9.750,20.502 9.750,20.144 L9.750,16.242 C9.750,15.884 10.041,15.592 10.400,15.592 L14.300,15.592 C14.659,15.592 14.950,15.884 14.950,16.242 L14.950,20.144 C14.950,20.502 14.659,20.791 14.300,20.791 ZM13.650,16.893 L11.050,16.893 L11.050,19.492 L13.650,19.492 L13.650,16.893 ZM14.300,14.292 L10.400,14.292 C10.041,14.292 9.750,14.001 9.750,13.642 L9.750,9.743 C9.750,9.384 10.041,9.091 10.400,9.091 L14.300,9.091 C14.659,9.091 14.950,9.384 14.950,9.743 L14.950,13.642 C14.950,14.001 14.659,14.292 14.300,14.292 ZM13.650,10.393 L11.050,10.393 L11.050,12.992 L13.650,12.992 L13.650,10.393 ZM14.300,7.792 L10.400,7.792 C10.041,7.792 9.750,7.500 9.750,7.143 L9.750,3.242 C9.750,2.883 10.041,2.591 10.400,2.591 L14.300,2.591 C14.659,2.591 14.950,2.883 14.950,3.242 L14.950,7.143 C14.950,7.500 14.659,7.792 14.300,7.792 ZM13.650,3.891 L11.050,3.891 L11.050,6.492 L13.650,6.492 L13.650,3.891 Z"/>
</svg>
