<svg xmlns="http://www.w3.org/2000/svg" xmlns:xlink="http://www.w3.org/1999/xlink" preserveAspectRatio="xMidYMid" viewBox="0 0 58 60" fill="#ffffff">
  <path d="M53.195,36.470 L53.195,37.442 L51.275,37.442 L51.275,36.470 C51.275,33.746 49.162,31.606 46.473,31.606 L46.473,29.659 C49.162,29.659 51.275,27.520 51.275,24.795 L51.275,23.822 L53.195,23.822 L53.195,24.795 C53.195,27.520 55.308,29.659 57.996,29.659 L57.996,31.606 C55.308,31.606 53.195,33.746 53.195,36.470 ZM52.235,28.298 C51.659,29.271 50.891,30.049 49.930,30.632 C50.891,31.216 51.659,31.995 52.235,32.968 C52.811,31.995 53.579,31.216 54.539,30.632 C53.579,30.049 52.811,29.271 52.235,28.298 ZM49.354,17.012 L49.354,17.985 L47.434,17.985 L47.434,17.012 C47.434,14.289 45.321,12.148 42.632,12.148 L42.632,10.202 C45.321,10.202 47.434,8.063 47.434,5.338 L47.434,4.365 L49.354,4.365 L49.354,5.338 C49.354,8.063 51.467,10.202 54.155,10.202 L54.155,12.148 C51.467,12.148 49.354,14.289 49.354,17.012 ZM48.394,8.840 C47.818,9.814 47.050,10.592 46.089,11.176 C47.050,11.758 47.818,12.537 48.394,13.511 C48.970,12.537 49.738,11.758 50.698,11.176 C49.738,10.592 48.970,9.814 48.394,8.840 ZM37.063,14.483 C36.774,16.817 35.814,18.959 34.278,20.709 L32.069,23.336 L32.645,24.795 L36.678,23.045 C36.678,22.946 36.774,22.946 36.774,22.946 C38.311,22.460 39.943,23.142 40.519,24.699 L45.993,39.583 C46.473,40.945 45.897,42.502 44.553,43.183 L40.328,45.322 L42.056,49.507 L45.225,49.507 C46.473,49.507 47.529,50.186 47.913,51.355 L48.778,53.690 L32.837,60.013 L31.877,57.580 C31.397,56.413 31.685,55.148 32.549,54.370 L34.854,52.132 L33.125,46.782 L28.324,46.198 L0.763,57.776 L-0.005,56.024 L17.377,48.728 L14.112,38.806 L0.668,44.252 L-0.005,42.404 L23.426,32.773 L24.098,29.465 C24.290,28.590 24.771,27.908 25.443,27.520 L24.866,26.061 L21.698,25.768 C19.489,25.574 17.280,24.699 15.456,23.336 L10.942,22.849 C8.926,22.558 7.198,21.197 6.525,19.250 C5.661,16.721 6.813,13.803 9.310,12.635 L8.830,11.370 L8.830,11.273 C8.254,9.814 9.022,8.160 10.558,7.575 L30.820,0.182 C32.261,-0.402 33.989,0.376 34.470,1.933 L34.758,2.809 C35.910,2.517 36.966,2.614 38.023,3.101 C38.407,3.296 38.791,3.587 39.175,3.879 C41.287,5.727 41.672,8.938 39.847,11.078 L37.063,14.483 ZM33.798,55.831 C33.605,56.122 33.509,56.511 33.605,56.900 L33.893,57.483 L46.185,52.522 L45.993,51.938 C45.801,51.547 45.513,51.355 45.033,51.355 L41.192,51.355 L37.063,52.716 L33.798,55.831 ZM39.943,49.602 L38.407,46.003 L36.774,46.782 C36.294,47.074 35.814,47.171 35.238,47.074 L36.486,50.771 L39.943,49.602 ZM23.714,34.817 L19.873,36.373 L22.370,43.961 L20.545,44.545 L18.145,37.151 L15.936,38.027 L19.201,47.950 L26.979,44.643 L23.714,34.817 ZM25.347,33.454 L28.900,44.252 L35.430,45.031 C35.622,45.031 35.814,45.031 36.006,44.934 L43.592,41.139 C44.072,40.945 44.265,40.458 44.072,39.972 L43.592,38.707 L39.079,40.264 L38.503,38.415 L42.920,36.956 L41.768,33.843 L37.159,35.399 L36.582,33.551 L41.095,31.995 L39.943,28.882 L35.238,30.438 L34.662,28.590 L39.367,27.034 L38.599,24.990 C38.407,24.504 37.830,24.308 37.350,24.504 L26.595,29.173 C26.307,29.271 26.115,29.563 26.019,29.855 L25.347,33.454 ZM10.078,14.580 C8.542,15.359 7.870,17.109 8.446,18.763 C8.830,20.028 9.982,20.904 11.326,21.001 L13.343,21.197 C12.575,20.223 11.903,19.056 11.422,17.889 L10.078,14.580 ZM34.854,9.133 L32.741,2.711 C32.645,2.420 32.453,2.225 32.261,2.129 C31.973,2.030 31.781,2.030 31.492,2.129 L11.230,9.523 C10.751,9.716 10.558,10.299 10.751,10.786 L13.247,17.207 C14.688,21.001 18.145,23.531 22.082,23.920 L26.307,24.308 L27.267,26.742 L30.724,25.282 L29.861,22.946 L32.837,19.445 C35.238,16.623 36.006,12.733 34.854,9.133 ZM37.254,4.852 C36.678,4.657 36.102,4.559 35.430,4.657 L36.678,8.452 C36.966,9.424 37.159,10.299 37.254,11.273 L38.407,9.814 C38.599,9.523 38.791,9.327 38.887,9.035 C39.560,7.382 38.791,5.533 37.254,4.852 ZM28.516,17.305 C32.741,13.023 28.420,5.922 28.324,5.922 L29.956,4.852 C30.244,5.144 35.142,13.316 29.861,18.667 L28.516,17.305 ZM7.101,23.822 L7.101,24.795 C7.101,27.520 9.214,29.659 11.903,29.659 L11.903,31.606 C9.214,31.606 7.101,33.746 7.101,36.470 L7.101,37.442 L5.181,37.442 L5.181,36.470 C5.181,33.746 3.068,31.606 0.379,31.606 L0.379,29.659 C3.068,29.659 5.181,27.520 5.181,24.795 L5.181,23.822 L7.101,23.822 ZM3.836,30.632 C4.797,31.216 5.565,31.995 6.141,32.968 C6.717,31.995 7.485,31.216 8.446,30.632 C7.485,30.049 6.717,29.271 6.141,28.298 C5.565,29.271 4.797,30.049 3.836,30.632 Z"/>
</svg>
