<svg xmlns="http://www.w3.org/2000/svg" xmlns:xlink="http://www.w3.org/1999/xlink" preserveAspectRatio="xMidYMid" viewBox="0 0 56 60" fill="#ffffff">
  <path d="M52.993,59.999 L14.756,59.999 L14.756,58.356 L52.993,58.356 C53.748,58.356 54.362,57.741 54.362,56.985 L54.362,51.544 L56.006,51.544 L56.006,56.985 C56.006,58.647 54.654,59.999 52.993,59.999 ZM52.718,43.126 L52.718,47.234 L51.075,47.234 L51.075,44.770 L48.609,44.770 L48.609,43.126 L52.718,43.126 ZM43.349,56.103 L41.448,52.254 L37.199,51.637 L40.274,48.639 L39.548,44.409 L43.349,46.406 L47.149,44.409 L46.424,48.639 L49.499,51.637 L45.249,52.254 L43.349,56.103 ZM44.966,47.413 L43.349,48.263 L41.731,47.413 L42.040,49.214 L40.731,50.489 L42.540,50.752 L43.349,52.390 L44.157,50.752 L45.966,50.489 L44.657,49.214 L44.966,47.413 ZM29.358,52.254 L27.458,56.104 L25.557,52.254 L21.308,51.637 L24.383,48.640 L23.657,44.409 L27.458,46.406 L31.259,44.409 L30.533,48.639 L33.608,51.637 L29.358,52.254 ZM29.075,47.413 L27.458,48.263 L25.840,47.413 L26.149,49.214 L24.841,50.489 L26.649,50.752 L27.458,52.390 L28.267,50.752 L30.075,50.489 L28.767,49.214 L29.075,47.413 ZM54.362,42.743 C54.362,41.988 53.748,41.373 52.993,41.373 L48.567,41.373 L40.335,35.564 L40.335,41.373 L3.019,41.373 C2.264,41.373 1.649,41.988 1.649,42.743 L1.649,56.985 C1.649,57.741 2.264,58.356 3.019,58.356 L13.112,58.356 L13.112,59.999 L3.019,59.999 C1.357,59.999 0.005,58.647 0.005,56.985 L0.005,42.743 C0.005,41.082 1.357,39.731 3.019,39.731 L38.691,39.731 L38.691,32.393 L49.089,39.731 L52.993,39.731 C54.654,39.731 56.006,41.082 56.006,42.743 L56.006,49.901 L54.362,49.901 L54.362,42.743 ZM33.575,29.619 C33.575,27.514 32.349,25.564 30.451,24.651 L31.230,23.035 C33.745,24.245 35.370,26.828 35.370,29.619 L35.370,36.773 L33.575,36.773 L33.575,29.619 ZM28.192,32.468 L29.987,32.468 L29.987,36.773 L28.192,36.773 L28.192,32.468 ZM24.005,34.561 L22.211,34.561 L22.211,32.767 L24.005,32.767 L24.005,34.561 ZM20.416,34.561 L18.622,34.561 L18.622,32.767 L20.416,32.767 L20.416,34.561 ZM16.827,34.561 L15.033,34.561 L15.033,32.767 L16.827,32.767 L16.827,34.561 ZM10.846,36.773 L9.051,36.773 L9.051,32.468 L10.846,32.468 L10.846,36.773 ZM7.256,29.619 C7.256,27.570 8.924,25.903 10.974,25.903 L10.974,27.696 C9.913,27.696 9.051,28.559 9.051,29.619 L7.256,29.619 ZM28.064,24.109 L24.086,24.109 C23.709,26.289 21.806,27.953 19.519,27.953 C17.232,27.953 15.329,26.289 14.952,24.109 L10.974,24.109 C7.934,24.109 5.463,26.581 5.463,29.619 L5.463,36.773 L3.668,36.773 L3.668,29.619 C3.668,25.591 6.945,22.315 10.974,22.315 L14.883,22.315 L14.883,19.821 C12.632,18.320 11.145,15.757 11.145,12.854 L11.145,8.369 C11.145,3.753 14.901,-0.003 19.519,-0.003 C21.747,-0.003 23.844,0.862 25.423,2.432 L24.158,3.704 C22.917,2.471 21.269,1.792 19.519,1.792 C15.891,1.792 12.939,4.742 12.939,8.369 L12.939,9.310 L13.174,8.874 C13.892,7.549 15.274,6.725 16.782,6.725 L22.255,6.725 C23.763,6.725 25.145,7.549 25.863,8.874 L26.099,9.310 L26.099,8.369 C26.099,7.156 25.765,5.970 25.135,4.940 L26.666,4.004 C27.469,5.314 27.893,6.824 27.893,8.369 L27.893,12.854 C27.893,15.757 26.407,18.318 24.155,19.821 L24.155,22.315 L28.064,22.315 C28.474,22.315 28.885,22.349 29.286,22.417 L28.988,24.186 C28.685,24.135 28.374,24.109 28.064,24.109 ZM16.678,23.319 C16.678,24.885 17.952,26.159 19.519,26.159 C21.086,26.159 22.360,24.885 22.360,23.319 L22.360,20.729 C21.473,21.049 20.516,21.225 19.519,21.225 C18.522,21.225 17.565,21.049 16.678,20.729 L16.678,23.319 ZM26.093,13.071 L24.285,9.727 C23.881,8.982 23.103,8.518 22.255,8.518 L16.782,8.518 C15.935,8.518 15.157,8.982 14.753,9.727 L12.945,13.071 C13.060,16.598 15.963,19.432 19.519,19.432 C23.074,19.432 25.978,16.598 26.093,13.071 ZM3.403,56.712 L3.403,52.604 L5.047,52.604 L5.047,55.069 L7.512,55.069 L7.512,56.712 L3.403,56.712 ZM14.564,52.254 L12.663,56.104 L10.762,52.254 L6.513,51.637 L9.588,48.640 L8.862,44.409 L12.663,46.406 L16.464,44.409 L15.738,48.640 L18.813,51.637 L14.564,52.254 ZM14.281,47.413 L12.663,48.263 L11.046,47.413 L11.354,49.214 L10.046,50.489 L11.854,50.752 L12.663,52.390 L13.472,50.752 L15.280,50.489 L13.972,49.214 L14.281,47.413 Z"/>
</svg>
