<svg xmlns="http://www.w3.org/2000/svg" xmlns:xlink="http://www.w3.org/1999/xlink" preserveAspectRatio="xMidYMid" width="50" height="50" viewBox="0 0 50 50">
  <defs>
    <style>
      .cls-1 {
        fill: #396cf0;
        fill-rule: evenodd;
      }
    </style>
  </defs>
  <path d="M24.999,0.000 C11.192,0.000 -0.000,11.193 -0.000,25.000 C-0.000,38.806 11.192,49.999 24.999,49.999 C38.806,49.999 49.999,38.806 49.999,25.000 C49.999,11.193 38.806,0.000 24.999,0.000 ZM34.089,27.495 L34.089,34.120 L34.089,35.239 L28.140,35.239 L30.611,32.022 L30.611,24.713 L24.856,32.891 L24.807,32.891 L19.268,25.240 L19.268,31.867 L21.859,35.239 L19.268,35.239 L15.909,35.239 L15.909,27.495 L15.909,14.760 L15.934,14.760 L24.879,27.446 L34.041,14.760 L34.089,14.760 L34.089,27.495 Z" class="cls-1"/>
</svg>
