<svg xmlns="http://www.w3.org/2000/svg" xmlns:xlink="http://www.w3.org/1999/xlink" preserveAspectRatio="xMidYMid" width="78" height="20" viewBox="0 0 78 20">
  <defs>
    <style>
      .cls-1 {
        fill: #fff;
        fill-rule: evenodd;
      }
    </style>
  </defs>
  <g>
    <g>
      <path d="M51.000,11.999 L51.000,10.999 L66.000,10.999 L66.000,11.999 L51.000,11.999 Z" class="cls-1"/>
      <path d="M51.000,8.999 L51.000,7.999 L78.000,7.999 L78.000,8.999 L51.000,8.999 Z" class="cls-1"/>
    </g>
    <path d="M39.000,19.999 C37.603,18.099 32.000,10.262 32.000,6.882 C32.000,3.081 35.134,-0.001 39.000,-0.001 C42.866,-0.001 46.000,3.081 46.000,6.882 C46.000,10.261 40.397,18.099 39.000,19.999 ZM43.671,4.979 C42.888,3.122 41.045,1.910 39.000,1.910 C36.209,1.913 33.948,4.137 33.944,6.882 C33.944,8.893 35.176,10.705 37.065,11.475 C38.954,12.245 41.129,11.819 42.575,10.397 C44.020,8.975 44.453,6.836 43.671,4.979 ZM42.658,7.971 L40.878,7.971 C40.454,7.971 40.107,8.318 40.107,8.742 L40.107,10.475 C40.107,10.595 40.010,10.692 39.890,10.692 L38.110,10.692 C37.990,10.692 37.893,10.595 37.893,10.475 L37.893,8.515 C37.893,8.214 37.645,7.971 37.339,7.971 L35.342,7.971 C35.222,7.971 35.125,7.873 35.125,7.753 L35.125,6.010 C35.125,5.890 35.222,5.793 35.342,5.793 L37.131,5.793 C37.552,5.793 37.893,5.452 37.893,5.031 L37.893,3.289 C37.893,3.168 37.990,3.071 38.110,3.071 L39.890,3.071 C40.010,3.071 40.107,3.168 40.107,3.289 L40.107,5.022 C40.107,5.446 40.454,5.793 40.878,5.793 L42.658,5.793 C42.778,5.793 42.875,5.890 42.875,6.010 L42.875,7.753 C42.875,7.873 42.778,7.971 42.658,7.971 Z" class="cls-1"/>
    <g>
      <path d="M27.000,11.999 L27.000,10.999 L12.000,10.999 L12.000,11.999 L27.000,11.999 Z" class="cls-1"/>
      <path d="M27.000,8.999 L27.000,7.999 L-0.000,7.999 L-0.000,8.999 L27.000,8.999 Z" class="cls-1"/>
    </g>
  </g>
</svg>
