<svg xmlns="http://www.w3.org/2000/svg" xmlns:xlink="http://www.w3.org/1999/xlink" preserveAspectRatio="xMidYMid" width="138" height="20" viewBox="0 0 138 20">
  <defs>
    <style>
      .cls-1 {
        fill: #fff;
        fill-rule: evenodd;
      }
    </style>
  </defs>
  <g>
    <g>
      <path d="M81.000,11.998 L81.000,10.999 L126.000,10.999 L126.000,11.998 L81.000,11.998 Z" class="cls-1"/>
      <path d="M81.000,8.999 L81.000,7.999 L138.000,7.999 L138.000,8.999 L81.000,8.999 Z" class="cls-1"/>
    </g>
    <path d="M69.000,19.999 C67.603,18.099 62.000,10.261 62.000,6.882 C62.000,3.080 65.134,-0.001 69.000,-0.001 C72.866,-0.001 76.000,3.080 76.000,6.882 C76.000,10.261 70.397,18.099 69.000,19.999 ZM73.671,4.980 C72.888,3.122 71.045,1.911 69.000,1.911 C66.209,1.914 63.948,4.137 63.944,6.882 C63.944,8.893 65.176,10.705 67.065,11.475 C68.954,12.245 71.129,11.818 72.575,10.397 C74.020,8.976 74.453,6.837 73.671,4.980 ZM72.658,7.971 L70.878,7.971 C70.454,7.971 70.107,8.318 70.107,8.742 L70.107,10.476 C70.107,10.595 70.010,10.693 69.890,10.693 L68.110,10.693 C67.990,10.693 67.893,10.595 67.893,10.476 L67.893,8.515 C67.893,8.215 67.645,7.971 67.339,7.971 L65.342,7.971 C65.222,7.971 65.125,7.874 65.125,7.753 L65.125,6.011 C65.125,5.890 65.222,5.793 65.342,5.793 L67.131,5.793 C67.552,5.793 67.893,5.453 67.893,5.032 L67.893,3.289 C67.893,3.169 67.990,3.071 68.110,3.071 L69.890,3.071 C70.010,3.071 70.107,3.169 70.107,3.289 L70.107,5.023 C70.107,5.446 70.454,5.793 70.878,5.793 L72.658,5.793 C72.778,5.793 72.875,5.890 72.875,6.011 L72.875,7.753 C72.875,7.874 72.778,7.971 72.658,7.971 Z" class="cls-1"/>
    <g>
      <path d="M57.000,11.998 L57.000,10.999 L12.000,10.999 L12.000,11.998 L57.000,11.998 Z" class="cls-1"/>
      <path d="M57.000,8.999 L57.000,7.999 L-0.000,7.999 L-0.000,8.999 L57.000,8.999 Z" class="cls-1"/>
    </g>
  </g>
</svg>
