<svg xmlns="http://www.w3.org/2000/svg" xmlns:xlink="http://www.w3.org/1999/xlink" preserveAspectRatio="xMidYMid" width="76" height="20" viewBox="0 0 76 20">
  <defs>
    <style>
      .cls-1 {
        fill: #e7e7e7;
        fill-rule: evenodd;
      }
    </style>
  </defs>
  <g>
    <g>
      <path d="M19.000,11.998 L19.000,10.999 L64.000,10.999 L64.000,11.998 L19.000,11.998 Z" class="cls-1"/>
      <path d="M19.000,8.998 L19.000,7.999 L76.000,7.999 L76.000,8.998 L19.000,8.998 Z" class="cls-1"/>
    </g>
    <path d="M7.000,19.998 C5.603,18.099 -0.000,10.262 -0.000,6.882 C-0.000,3.080 3.134,-0.001 7.000,-0.001 C10.866,-0.001 14.000,3.080 14.000,6.882 C14.000,10.261 8.396,18.099 7.000,19.998 ZM11.671,4.980 C10.888,3.122 9.045,1.910 7.000,1.910 C4.209,1.914 1.948,4.138 1.944,6.882 C1.944,8.892 3.176,10.706 5.065,11.475 C6.954,12.245 9.129,11.819 10.575,10.397 C12.020,8.975 12.453,6.837 11.671,4.980 ZM10.658,7.970 L8.878,7.970 C8.454,7.970 8.107,8.317 8.107,8.741 L8.107,10.475 C8.107,10.595 8.010,10.693 7.890,10.693 L6.110,10.693 C5.990,10.693 5.893,10.595 5.893,10.475 L5.893,8.515 C5.893,8.214 5.645,7.970 5.339,7.970 L3.342,7.970 C3.222,7.970 3.125,7.873 3.125,7.754 L3.125,6.011 C3.125,5.890 3.222,5.793 3.342,5.793 L5.131,5.793 C5.552,5.793 5.893,5.452 5.893,5.031 L5.893,3.288 C5.893,3.169 5.990,3.072 6.110,3.072 L7.890,3.072 C8.010,3.072 8.107,3.169 8.107,3.288 L8.107,5.022 C8.107,5.446 8.454,5.793 8.878,5.793 L10.658,5.793 C10.778,5.793 10.875,5.890 10.875,6.011 L10.875,7.754 C10.875,7.873 10.778,7.970 10.658,7.970 Z" class="cls-1"/>
  </g>
</svg>
